<svg id="Layer_1" data-name="Layer 1" xmlns="http://www.w3.org/2000/svg" viewBox="0 0 288 288"><defs><style>.cls-1{fill:#fff;}</style></defs><title>Backyard party</title><path d="M203.16,116.43l5.23,1.91a57.39,57.39,0,0,1,1.5-6.86c.81-2.31,1.65-4.82,3.21-6.62,4.53-5.25,4.87-6.71,1.55-12.93-2-3.67-4.05-7.28-5.86-11-1.91-3.92-.65-6.11,3.7-6.26,5.16-.19,10.33-.17,15.49,0,4.73.15,6,2.29,3.89,6.46s-4.52,8.16-6.56,12.35c-1.91,3.93-2.94,7.62,2.24,10.44,3.83,2.08,5.23,5.84,4.28,10.3-1.08,5-1.87,10.15-3.13,15.15C226,140,219.25,144,208.52,141.66c-.94-.21-1.87-.46-3.61-.89,3.26,7.27,6.3,13.83,9.14,20.47,5.63,13.1,3.61,20.53-7.88,28.87A13.2,13.2,0,0,0,200.23,202c.23,10.82.13,21.66.05,32.49-.07,8.65-4.61,13.38-12.63,13.44-7.84.05-12.62-4.83-12.86-13.31-.33-11.65-.54-23.32-.85-35-.07-2.78-.32-5.57-.5-8.53-5.11-.48-6.82,2.57-8.07,6.2-1.39,4.09-2.58,8.26-4.21,12.25A11.94,11.94,0,0,1,146,216.33c-5.22-1.84-8-7.28-6.17-13.53a206.89,206.89,0,0,1,7.37-21.71c1.47-3.57,4.39-6.53,6.76-9.92-12.58-2.29-16.7-12.29-19.31-23.31-1.36-5.71-.24-11.18,5-14.6,5.07-3.29,9.85-1.52,13.78,2.05l5.77-6.22c-14.29-11.78-17.95-27.7-9.12-41.67A30.12,30.12,0,0,1,187.78,76C202.83,82.67,208.71,97.78,203.16,116.43Zm-43.87,1.79-.78,1.21c3.07,1.83,6.24,3.53,9.19,5.55,1.73,1.18,4,2.67,4.36,4.4.25,1.09-2.18,3.45-3.87,4.24-5.27,2.45-8.52,5.92-8.87,12.06a15.87,15.87,0,0,1-2.59,7.86c-.85,1.21-3.67,1-5.61,1.49-.37-1.73-.82-3.44-1.09-5.19-.4-2.64-.19-5.51-1.19-7.87-.57-1.35-3-1.88-4.65-2.78-.82,1.51-2.32,3-2.35,4.55-.14,7,2.77,13,7.71,17.78,3.35,3.24,7.16,2.39,9.49-1.7,2.05-3.61,3.53-7.57,5.77-11,1.17-1.83,3.63-4.3,5.14-4.07,1.79.28,3.87,2.91,4.59,5,1.31,3.73,1.71,7.78,2.49,11.69,4.79,23.83,4.49,48,4.91,72.15.08,4.18,1.26,6.88,5.81,6.87s5.29-3.05,5.27-6.8c-.06-10.82.15-21.65-.08-32.47-.15-7,2.73-12.2,8.05-16.29,9.91-7.63,10.76-10.66,5.78-22-3.61-8.21-7.51-16.31-10.86-24.63-.79-2-.76-5.53.45-6.61s4.56-.8,6.79-.3,4.46,2.22,6.81,3c6,2,9.73,0,11.28-6a122.93,122.93,0,0,0,2.94-14.65c.19-1.47-1.26-3.16-2-4.74-1.7,1.16-4.19,2-4.92,3.58-1.13,2.48-.91,5.54-1.5,8.3-1.33,6.28-4.44,7.93-10,4.78-3.43-2-6.16-1.6-9.21.4a40.66,40.66,0,0,1-8.24,4.63c-1.41.5-3.43-.75-5.18-1.2.59-1.7.81-3.7,1.88-5s3.1-1.87,4.54-3A22.76,22.76,0,0,0,163.65,84.1a22.22,22.22,0,0,0-8.18,29.47c3.28-3.49,3.19-3.16,8-1.84,2.31.64,5-.41,7.57-.36a36,36,0,0,1,5.67,1c-.86,1.89-1.19,4.53-2.65,5.53C169.41,121.05,164.29,120.48,159.29,118.22ZM171.63,174c-7.09-.14-13.38,1.68-16.37,7.8-3.6,7.37-5.84,15.43-8.31,23.3-.36,1.15,1.06,4,2,4.17,1.52.29,4.05-.51,4.88-1.73a23,23,0,0,0,3.14-7.77c2-8.6,5.3-15.88,15.72-16.67C172.32,179.82,172,177.09,171.63,174Zm-1.2-7.6-1.73-8.68c-1.26,2.26-2,3.53-2.69,4.82s-1.46,2.75-2.46,4.62Z"/><path d="M80.31,58.62C82.18,55.07,78.43,49,84.58,49s2.28,6.13,4.31,9.67c8.41,1.88,15.64,6.47,19.88,14.91a26.61,26.61,0,0,1,2.07,18.47c-2.83,12.19-14.93,21.27-27.3,20.57-13.25-.75-24.08-10.5-25.64-23.09C56,74.43,63.8,63.76,80.31,58.62ZM67.67,75.79c-.66,1.29-1.19,2.14-1.54,3.06-2.34,6.29-1.88,7.32,4.38,9.41a41.32,41.32,0,0,0,26.94,0c7.58-2.57,8.12-3.84,4.81-11.1A17.46,17.46,0,0,0,100.85,75C90,80.88,79.1,80.91,67.67,75.79Zm-.23,19.37C72.88,103,79.12,105.92,87.05,105c6.19-.71,10.82-3.9,14.78-10.31C90.08,98.68,79.46,98.8,67.44,95.16Zm5.68-25.07C81,72.93,87.88,72.85,95,69.63,88.51,64.55,80.8,64.63,73.12,70.09Z"/><path d="M67.38,139.24c-2-2.5-4.14-4-4.17-5.56,0-1.16,2.75-3.45,4.09-3.32,1.66.16,3.14,2.3,4.7,3.58Z"/><path d="M136.77,87.26,131.86,92c-1.3-1.37-3.7-2.79-3.64-4.09.1-1.71,2.12-3.32,3.31-5Z"/><path d="M85.13,139.2c-2-2.48-4.07-4-4.1-5.56,0-1.15,2.78-3.42,4.12-3.28,1.68.18,3.15,2.31,4.71,3.6Z"/><path d="M122.89,73.38c1.92,2.35,4.18,4,4,5.19-.22,1.4-2.48,3.08-4.14,3.49-2.51.62-5-.71-4.49-3.66C118.53,76.85,120.71,75.63,122.89,73.38Z"/><path d="M140.62,83.8l-4.67-5c1.56-1.29,3-3.44,4.7-3.58,1.35-.12,2.91,2.17,4.37,3.39Z"/><path d="M81.92,124.93l-5.79,4.57C75,128,73,126.46,73,124.94s2-3.09,3.11-4.63Z"/><path d="M81.59,143c-2.36,1.88-4,4.13-5.23,3.92-1.4-.24-3-2.51-3.45-4.18-.62-2.53.76-5,3.69-4.44C78.16,138.6,79.35,140.8,81.59,143Z"/><path d="M136.75,70l-5.21,4.23c-1.2-1.47-3.46-3.06-3.32-4.39.18-1.68,2.32-3.16,3.62-4.72Z"/><path class="cls-1" d="M171.63,174c.37,3.08.69,5.81,1.08,9.1-10.42.79-13.71,8.07-15.72,16.67a23,23,0,0,1-3.14,7.77c-.83,1.22-3.36,2-4.88,1.73-1-.18-2.38-3-2-4.17,2.47-7.87,4.71-15.93,8.31-23.3C158.25,175.69,164.54,173.87,171.63,174Z"/><path class="cls-1" d="M170.43,166.41l-6.88.76c1-1.87,1.71-3.25,2.46-4.62s1.43-2.56,2.69-4.82Z"/><path d="M165.2,102.43c-2.65,2-4.27,4.18-5.68,4.06s-2.85-2.42-4.27-3.76c1.35-1.39,2.56-3.67,4.08-3.89S162.45,100.64,165.2,102.43Z"/><path d="M173.88,96.8c2,2.73,4,4.36,3.87,5.75s-2.39,2.8-3.71,4.19c-1.36-1.34-3.61-2.57-3.82-4.08S172,99.59,173.88,96.8Z"/></svg>