<svg id="Layer_1" data-name="Layer 1" xmlns="http://www.w3.org/2000/svg" viewBox="0 0 288 288"><title>Book</title><path d="M138,93.6c2.54-21.48,15.24-32.7,36.46-32.7,3,0,6,0,9,0,4.87.1,7.33,2.51,7.4,7.36.08,6.15,0,12.29,0,19,6.1,0,11.95,0,17.79,0,6.24,0,8.53,2.22,8.54,8.29q0,47.72,0,95.41c0,5.89-2.33,8.2-8.22,8.21-12.07,0-24.13,0-36.19,0-10.48,0-17.07,4.56-20.54,14.37-1.26,3.56-3.5,5.35-7.29,5.4-4,0-6.35-1.67-7.67-5.44-3.37-9.62-10.06-14.3-20.16-14.32-12.2,0-24.4,0-36.6,0-5.87,0-8.16-2.32-8.16-8.26q0-47.7,0-95.4c0-5.94,2.27-8.23,8.16-8.25,12.61,0,25.22,0,37.84,0C125.5,87.21,131.81,89.57,138,93.6Zm.19,99.06c0-25.33.23-49.71-.11-74.09-.14-10.08-9-18-19.32-18.13-9.73-.14-19.45,0-29.18,0H85.8V186c8.8,0,17.4.19,26-.05C121,185.68,129.84,186.42,138.2,192.66ZM177.56,74.49c-17.13-3-26.71,8.9-26.31,22.29.65,21.49.18,43,.18,64.52v5.07c8.28-6.22,17.16-7.09,26.13-6.81ZM151.62,192c12.18-6,12.48-6,24.51-6H203.8V100.61H190.93v3.78q0,30.19,0,60.4c0,5.64-2.36,8-8,8-4.24,0-8.49-.12-12.73.06C160,173.31,152.06,181.41,151.62,192Z"/></svg>