<svg id="Layer_1" data-name="Layer 1" xmlns="http://www.w3.org/2000/svg" viewBox="0 0 288 288"><defs><style>.cls-1{fill:#fff;}</style></defs><title>Business</title><path d="M246,204a30.38,30.38,0,0,1-5.27.94c-17.14.07-34.29-.07-51.43.1-4.5.05-6.61-1.22-5.89-6a35,35,0,0,0,.06-6.48c-.37-10.74,4.31-15.62,15.06-15.67,1,0,1.95-.08,3.08-.13,1.21-3.85.57-6.45-2.82-9-6.32-4.83-9-11.72-9.06-19.66s0-15.64,0-23.45c0-6.5,2.91-10.58,9-12.88a31.57,31.57,0,0,0,4.92-2.32C219.73,99.85,239,107,244.8,124.78c.35,1.09.8,2.15,1.2,3.22v38c-4.74,2.52-4.74,2.52-8-8-.62,7.78-12.65,8.83-10.51,18.9,8.28-1,15,.94,18.47,9.09Zm-6.31-57.77c0-5.92.28-10.41-.06-14.85-1-13.58-14.43-23.16-26.87-19.37-6.66,2-7.5,3.11-7.44,10.15,0,2.65.38,5.29.45,7.94.11,4.2,2.45,6.08,6.38,5.89C222.34,135.49,231.57,137.71,239.69,146.23ZM196,142.45c0,2.43-.12,4.92,0,7.39A18.71,18.71,0,0,0,210.91,167a19,19,0,0,0,20.94-10.68c2.69-6,1.87-8.7-4.21-11.42a29.3,29.3,0,0,0-9-2.16c-5.69-.52-11.69.6-16.06-4.12Zm-5.93,56h49.46c0-3.58.51-7-.19-10.1-.42-1.9-2.5-4.52-4.19-4.82-4.45-.8-9.39-1.89-13.31,1.68-4.79,4.36-9.12,4.8-14.19.14-4.22-3.88-9.79-3.2-14.58-1.33s-2.87,6.84-3.23,10.62A26,26,0,0,0,190.1,198.46Zm30.65-25H208.87c-.32,4.2,2.56,8.35,5.69,8.52S221,177.68,220.75,173.45Zm-25-39.37,1.67.23c2.92-4.68,1.15-9.83,1.69-14.75l-2.42-.22Q196.23,126.71,195.75,134.08Z"/><path class="cls-1" d="M246,186c-3.47-8.15-10.19-10.11-18.47-9.09-2.14-10.07,9.89-11.12,10.51-18.9,3.22,10.51,3.22,10.51,8,8Z"/><path d="M162.17,204.64c20.25,1.77,24.38,6.31,24.54,26.64,0,1.33.15,2.66.12,4-.1,4.53-3.09,7.32-7.65,7.31q-33.23,0-66.47,0c-4.1,0-7-2.06-7.39-5.93a63.63,63.63,0,0,1,.33-15.42c1.66-10.46,8.85-16.18,19.47-16.29,1.47,0,2.95,0,4.67,0,.93-4.18.82-7.18-3.07-10a28.43,28.43,0,0,1-11.83-22.69c-.22-5.8-.22-11.63.13-17.42.44-7.26,3.8-13.28,8.58-18.7a27.37,27.37,0,0,0,5.2-8.23c4.67-12.45,8.92-25,13.51-37.53.6-1.64,2.28-2.87,3.46-4.3,1.33,1.45,3.26,2.67,3.9,4.37,4.15,11,8.09,22.17,12,33.32a50.16,50.16,0,0,0,7.83,14.15,41.76,41.76,0,0,1,7.32,17c1.21,6.41.68,13.28.08,19.87a27.07,27.07,0,0,1-11.25,19.86C161.83,197.4,161,200.33,162.17,204.64Zm-41.17-39c0,2.58,0,3.74,0,4.91a25,25,0,0,0,49.5,4.42c.71-3.88.46-8,.46-11.95,0-4.2-4.61-8.08-8.71-7-10.59,2.88-21.07,2.19-31.65,0-1.7-.36-3.76.39-5.52,1C120.07,158.85,120.92,163.16,121,165.68Zm-9,70.06h68.09c0-4-.12-7.64,0-11.27.23-5.86-2.31-10-7.58-12.3-5.76-2.52-12.79-1.37-16.74,3.14-4.72,5.37-11.19-4.09-15.69,2.13-.17.23-2-.7-3-1.15a1.94,1.94,0,0,1-.67-.74c-4.47-6.38-10.94-5.42-16.59-3.24a14.2,14.2,0,0,0-7.51,8.35C111.1,225.26,112.05,230.48,112.05,235.74Zm10.76-85.88c3,0,6.09-.47,9,.09,9.38,1.79,18.66,2.8,28.11.27,3-.79,6.22-.63,9.2-.9-2.73-9-8.25-13.2-18.28-13.2H140.39C131,136.12,125,141,122.81,149.86Zm13.95,51.56a18.43,18.43,0,0,0,0,3.86c2.11,9.64,10.89-.86,14.38,4.73,1.35-1.5,3-2.83,3.93-4.56.6-1.11.12-2.81.12-4Zm19.87-71.58c-.24-4.71-2.16-6.73-6.65-6.14a31.49,31.49,0,0,1-7.94,0c-4.73-.59-6.57,1.57-6.6,6.14Zm-4.8-12.75c.39-5.71-2.83-6.08-7-6.07-4.41,0-4.51,2.74-4.85,6.07Z"/><path d="M64.31,176.85c1.28-4.4-.52-6.51-2.92-9.26A47.57,47.57,0,0,1,53,153.34c-2.22-5.91-2-12.52-3.35-18.8C47.26,123.87,57,112.44,68,109.17a26.41,26.41,0,0,1,34,23.38,160.42,160.42,0,0,1,0,17.95,21.9,21.9,0,0,1-8.88,17.19c-3.26,2.43-3.89,5-2.85,9.15H95c8.56,0,13.92,5.68,13.64,14.25-.1,3-.16,6,0,9,.21,3.35-1,4.94-4.52,4.93q-27-.07-54,0c-3,0-4.28-1.19-4.19-4.17.1-3.5,0-7,0-10.5.09-8.57,5.12-13.48,13.78-13.5Zm-5.55-35.06c0,2.05-.12,5.19,0,8.32C59.36,162.7,73,171,84.5,165.83c9.69-4.34,12-12.44,11.55-22.15-.31-6.74-4.78-10.22-11.17-8.51C76.48,137.41,68,139.45,58.76,141.79Zm-6.59,56.64h50c0-1.81.09-3.29,0-4.76-.25-3.51,1.16-8.06-3.24-9.62-4.21-1.5-8.36-1.14-13.15.69-5.06,1.94-11.94,1.74-17.13-.08-4.56-1.6-8.61-2.14-12.71-.8-4.36,1.43-3.61,5.83-3.73,9.43C52.12,194.91,52.17,196.53,52.17,198.43Zm3.41-65.26a39.47,39.47,0,0,0,27-4.11c3-1.61,4.54-6,6.85-9.31-7-5.67-14-6.94-21.54-3.79C60.64,119,56.5,124.59,55.58,133.17Zm27.58,40.26H71.43v4.35H83.16Z"/><path d="M178.67,73.3c5.53,6.53,5.53,6.53.49,12.77a3.84,3.84,0,0,0,.28.89c1.34,2.12,4.32,5.28,3.75,6.16-2.1,3.24-5.29,5.81-8.28,8.4-.44.38-2.48-.24-2.93-1a4,4,0,0,1-.29-3.52,28.73,28.73,0,0,1,3.9-4.46c-5.08-6.28-5.08-6.28-.32-12.74-5.05-6.37-5.05-6.37.39-12.42-1.16-1.27-2.7-2.41-3.44-3.93-.59-1.21-.22-2.9-.27-4.38,1.47,0,3.32-.6,4.35.07,2.06,1.33,3.61,3.41,5.47,5.07,2.37,2.12,2.54,4.14.07,6.26C180.84,71.38,179.85,72.27,178.67,73.3Z"/><path d="M97.29,86a23.66,23.66,0,0,0-2.24-2.48c-2.79-2.32-3-4.54-.12-7,1.39-1.17,2.41-3,3.95-3.74s3.67-.8,5.53-1.14a41.33,41.33,0,0,1-1.34,5.56c-.37,1-1.44,1.69-2.16,2.49,5.08,6.76,5.08,6.76-.1,12.78,1.12,1.26,2.64,2.4,3.34,3.92.57,1.25.17,3,.19,4.46a36.47,36.47,0,0,1-4.44-.22c-.53-.08-1-.87-1.44-1.32C91.92,93.07,91.92,93.07,97.29,86Z"/><path d="M136.38,54.82c-1.44,3-2.72,5.9-4.22,8.65-.25.48-2.07.74-2.16.57-1.86-3.5-4.06-7-5.1-10.72-.43-1.54,1.38-4.09,2.78-5.63.91-1,4-1.7,4.27-1.31A80.84,80.84,0,0,1,136.38,54.82Z"/><path d="M220.8,76.72c-1.45,3-2.69,5.9-4.24,8.61-.31.54-1.86.73-2.71.53-2.49-.59-5.19-9.67-3.73-11.75a12.2,12.2,0,0,0,1.63-3.81c.76-2.85,3.09-3.82,4.71-2C218.55,70.66,219.49,74.05,220.8,76.72Z"/><path d="M78.51,54.62c-2,1.59-3.23,3.25-4.23,3.13-1.15-.13-2.58-1.69-3-2.92-.19-.62,1.57-2.6,2.55-2.67C75,52.07,76.29,53.36,78.51,54.62Z"/><path d="M59.47,89c-1.6,1.41-2.7,3.09-3.56,3-1.27-.18-2.36-1.63-3.53-2.54,1-1.09,1.91-2.72,3.16-3.1C56.34,86.14,57.69,87.77,59.47,89Z"/><path d="M241,55.22c-2.08,1.23-3.37,2.56-4.62,2.53-.89,0-2.62-2.21-2.38-2.88a4.68,4.68,0,0,1,3.17-2.7C238,52.06,239.18,53.72,241,55.22Z"/></svg>