<svg id="Layer_1" data-name="Layer 1" xmlns="http://www.w3.org/2000/svg" viewBox="0 0 288 288"><title>Check live</title><path d="M193.11,183.78l20.94,20.08-13.17,13.58L180.8,195.87c-2.06,4.49-3.57,7.91-5.17,11.29-3.53,7.44-9.81,11.55-17.32,11-7.88-.64-13.86-4.76-15.58-12.41-1.77-7.89-5.69-9.51-13.42-9.88-29.42-1.42-53.42-26.41-54.67-55.63-1.3-30.54,19.77-56.69,49.5-61.44a58.85,58.85,0,0,1,68.66,58c0,4.62,1.08,7.16,5.73,7.92a23,23,0,0,1,5.18,1.72c6.85,2.92,10.74,8.16,11.08,15.57s-3.21,13-9.74,16.44C201.39,180.31,197.5,181.81,193.11,183.78Zm-59.84-5.69c-2.59-7.84-5-15.68-7.8-23.34-3.08-8.31-4.61-16.31,2.4-23.41s15-5.76,23.35-2.67C159,131.54,167,133.94,175,136.6c1.19-21.89-18.49-41.27-41.24-41.26a41.63,41.63,0,0,0-41.54,44.58C93.46,161.32,113.72,180.32,133.27,178.09Zm26,22.45c2.87-6.43,5.63-11.6,7.5-17.09,2.29-6.7,6.26-11,13.1-13.24,5.57-1.84,10.8-4.7,17.35-7.63l-56.9-18.87C146.93,163.37,153,181.43,159.32,200.54Z"/></svg>