<svg id="Layer_1" data-name="Layer 1" xmlns="http://www.w3.org/2000/svg" viewBox="0 0 288 288"><defs><style>.cls-1{fill:#fff;}</style></defs><title>Community</title><path d="M170.66,105.44c4.8,5.67,4.8,5.67.43,11.09a3,3,0,0,0,.24.77c1.16,1.84,3.74,4.59,3.25,5.35-1.82,2.81-4.59,5-7.18,7.29-.38.33-2.16-.21-2.56-.82a3.54,3.54,0,0,1-.25-3.06,24.75,24.75,0,0,1,3.4-3.87c-4.42-5.45-4.42-5.45-.28-11.06-4.39-5.54-4.39-5.54.34-10.79-1-1.1-2.35-2.09-3-3.41-.52-1.05-.19-2.52-.24-3.8,1.28,0,2.88-.53,3.78.05,1.79,1.16,3.14,3,4.75,4.41,2.06,1.84,2.2,3.6.06,5.44C172.54,103.78,171.68,104.54,170.66,105.44Z"/><path d="M100,116.44A18.74,18.74,0,0,0,98,114.29c-2.42-2-2.6-4-.1-6.05,1.21-1,2.09-2.56,3.43-3.25s3.19-.69,4.8-1a35.05,35.05,0,0,1-1.16,4.83c-.32.86-1.25,1.48-1.87,2.17,4.4,5.87,4.4,5.87-.1,11.1,1,1.09,2.3,2.08,2.91,3.4.5,1.09.14,2.57.16,3.88a32.87,32.87,0,0,1-3.85-.19c-.47-.08-.83-.76-1.25-1.16C95.33,122.6,95.33,122.6,100,116.44Z"/><path d="M133.93,89.39c-1.25,2.63-2.35,5.13-3.66,7.52-.22.41-1.8.64-1.87.49-1.62-3-3.53-6-4.43-9.31-.37-1.34,1.19-3.55,2.41-4.89.79-.86,3.48-1.48,3.71-1.14A68.09,68.09,0,0,1,133.93,89.39Z"/><path d="M207.24,108.41c-1.25,2.62-2.33,5.12-3.68,7.48-.27.47-1.61.63-2.35.46-2.16-.51-4.51-8.4-3.25-10.2a10.57,10.57,0,0,0,1.43-3.32c.66-2.47,2.68-3.31,4.09-1.73C205.29,103.15,206.11,106.09,207.24,108.41Z"/><path d="M83.68,89.22C81.92,90.6,80.88,92,80,91.94a4,4,0,0,1-2.58-2.54c-.17-.54,1.36-2.25,2.21-2.32C80.65,87,81.76,88.13,83.68,89.22Z"/><path d="M67.15,119.11c-1.39,1.22-2.35,2.68-3.09,2.58-1.1-.15-2.05-1.41-3.07-2.2.9-.95,1.66-2.36,2.75-2.69C64.43,116.59,65.6,118,67.15,119.11Z"/><path d="M224.75,89.74c-1.81,1.07-2.93,2.23-4,2.2-.77,0-2.27-1.92-2.07-2.5a4.09,4.09,0,0,1,2.75-2.35C222.21,87,223.2,88.44,224.75,89.74Z"/><path d="M68.52,138.2c-1.38,1.25-2.15,1.6-2.28,2.11-3.7,14.79-7.23,29.73,1,44.1,2.65,4.65,6.6,8.69,10.5,12.46,2.26,2.18,3.16,4,2.06,6.87-1,2.64-1.54,5.48-2.82,8-.57,1.1-2.44,1.53-3.72,2.26-.59-1.34-2.07-3.17-1.64-4,3.42-6.17.33-9.8-3.8-14.31-11-12.06-13.17-26.78-10.46-42.45.73-4.25,1.49-8.52,2.53-12.7,1.42-5.65,5-8.33,9.46-7.36,4.62,1,7.07,5.27,6.45,10.82-.68,6.11-1.67,12.22-1.69,18.34-.07,14,9.58,24.45,22.89,25.49,14.11,1.11,26.75-8.34,29-21.85.8-4.91,1-9.92,1.68-14.86.68-5.13,4-8.07,8.58-7.81,4.35.25,7.22,3.36,7.74,8.24.56,5.28.8,10.65,1.91,15.82,2.25,10.38,11.77,19.09,21.56,20.37,11.41,1.48,21.62-3.21,26.81-12.43,4.92-8.75,3.19-18.07,2.17-27.32a64.08,64.08,0,0,1-.67-7.43c0-4,2.34-6.52,6.19-7.35s7.46.67,8.59,4.31c6.53,20.93,8.65,45.51-10.35,61.93-2.09,1.81-2.87,3.41-1.59,5.95a8,8,0,0,1,1.11,3.79,21.28,21.28,0,0,1-1.31,4.7c-1.45-1-2.93-1.87-4.32-2.91-.31-.23-.2-1-.42-1.4-3.21-6.32-2.58-10.88,3.6-15.92,11.75-9.59,13-23.3,11.31-37.41a104.11,104.11,0,0,0-2.56-13.19c-.37-1.45-1.88-2.62-2.87-3.91-.43,1.61-1.28,3.25-1.21,4.85.31,7.12,1.7,14.29,1.2,21.33-1.14,16.06-13.18,27.57-28.71,28.52-16.24,1-31.1-9.69-34.41-25.1-1.12-5.18-1.24-10.56-2.05-15.81-.18-1.22-1.28-2.3-2-3.45-.86,1.16-2.28,2.24-2.48,3.5-.74,4.59-.9,9.27-1.59,13.87-1.85,12.36-12.93,23.83-25.43,26.57a32.42,32.42,0,0,1-33.27-13.2c-5.69-8.43-5.73-17.84-4.78-27.4.31-3.14,1.1-6.23,1.31-9.37C69.78,142,69,140.42,68.52,138.2Z"/><path d="M99.76,184.85a22,22,0,0,1-21.7-22.08,22.3,22.3,0,0,1,22.1-21.84A22,22,0,0,1,122,163.41,21.71,21.71,0,0,1,99.76,184.85ZM116,163.24a16,16,0,0,0-15.88-16.31,16.25,16.25,0,0,0-16,15.75,16,16,0,0,0,16,16.18A15.76,15.76,0,0,0,116,163.24Z"/><path d="M171,184.85a21.88,21.88,0,0,1-21.7-22,21.95,21.95,0,1,1,43.89.54A21.77,21.77,0,0,1,171,184.85Zm.35-6a15.77,15.77,0,0,0,15.84-15.74,15.95,15.95,0,1,0-31.89.17A15.85,15.85,0,0,0,171.36,178.86Z"/><path d="M136.22,192.94c-2.94,2.65-5.77,4.94-8.25,7.56a5.21,5.21,0,0,0-.91,3.86c.27,1.94,1.52,3.78,1.6,5.7.05,1.29-1.19,2.63-1.86,4-1.2-.64-3.06-1-3.48-2A53.59,53.59,0,0,1,120,201.66c-.24-1.21.93-3,1.89-4.08,3.43-4,7.24-7.7,10.55-11.79,2.51-3.12,4.12-2.92,6.52.14,3.15,4,7,7.49,10.13,11.5a8.68,8.68,0,0,1,1.7,5.8,27.09,27.09,0,0,1-2.7,8.48c-.53,1.1-2.42,1.53-3.7,2.27-.62-1.18-2.1-2.89-1.74-3.47,4.87-7.87-1.26-11.88-5.54-16.56a12.88,12.88,0,0,0-1.06-1C136,192.83,135.78,192.85,136.22,192.94Z"/><path class="cls-1" d="M116,163.24a15.76,15.76,0,0,1-15.94,15.62,16,16,0,0,1-16-16.18,16.25,16.25,0,0,1,16-15.75A16,16,0,0,1,116,163.24Z"/><path class="cls-1" d="M171.36,178.86a15.85,15.85,0,0,1-16.05-15.57,15.95,15.95,0,1,1,31.89-.17A15.77,15.77,0,0,1,171.36,178.86Z"/></svg>