<svg id="Layer_1" data-name="Layer 1" xmlns="http://www.w3.org/2000/svg" viewBox="0 0 288 288"><defs><style>.cls-1{fill:#fff;}</style></defs><title>Mail</title><path d="M245,95V195c-.49,1.4-1,2.8-1.46,4.2-4.17,12.39-15.15,20.72-28.2,20.75q-70.35.15-140.7,0c-13.07,0-24-8.34-28.19-20.75L45,195V95q.82-2.32,1.64-4.65c4.26-12.2,15.06-20.27,28-20.3q70.37-.15,140.73,0c12.91,0,23.73,8.11,28,20.29C243.89,91.9,244.45,93.45,245,95Zm-73.26,61.52c1.84,1.65,3.08,2.71,4.27,3.83q19.67,18.48,39.3,37c2.6,2.46,5.49,4.61,8.59,1.38,3.31-3.45,1-6.36-1.91-8.84l-.36-.34Q202.34,171.41,183,153.28c-1.2-1.12-2.8-1.82-5.51-3.52,2.91-2,4.45-2.83,5.63-4C195.81,133.22,208.48,120.68,221,108c5-5,5.38-10.74,1.48-14.62s-8-3.37-13.61,2.22l-60.15,60c-1.24,1.23-2.55,2.4-3.62,3.41l-61.42-61c-1.66-1.64-3.27-3.34-5-4.92-2.72-2.51-5.78-3.28-9.11-1.25s-5.47,5.28-4.24,9.24a19.93,19.93,0,0,0,4.54,7.54c7.83,8.19,15.89,16.15,23.93,24.13,5.53,5.49,11.17,10.88,17.31,16.85-2,1.71-3.41,2.84-4.73,4.08q-19.12,18-38.23,35.95c-2.68,2.52-5.55,5.25-2.33,8.82,3.48,3.87,6.52,1,9.3-1.63q19.08-18,38.2-36c1.41-1.32,2.88-2.56,4.43-4,6.4,6.39,12.5,12.52,18.64,18.61,5.88,5.83,11,5.9,16.78.05C159.41,169.36,165.48,163,171.74,156.52Z"/><path class="cls-1" d="M45,195l1.45,4.2c4.18,12.41,15.12,20.72,28.19,20.75q70.35.15,140.7,0c13,0,24-8.36,28.2-20.75.47-1.4,1-2.8,1.46-4.2v50H45Z"/></svg>