<svg xmlns="http://www.w3.org/2000/svg" width="72.717" height="72.695" viewBox="0 0 72.717 72.695">
  <g id="Phone-01" transform="translate(0)">
    <path id="Path_1550" data-name="Path 1550" d="M44.975,79.912A16.823,16.823,0,0,1,49.242,72.5c3.272-3.123,7.2-3.821,11.422-3.355.749.084,1.7,1.178,2,2.01,1.349,3.744,2.523,7.554,3.7,11.36.589,1.9.978,3.871,1.592,5.765a4.246,4.246,0,0,1-1.091,4.649c-1.091,1.12-2.21,2.239-3.33,3.344a2.978,2.978,0,0,0-.407,4.249,66.184,66.184,0,0,0,14.319,14.315,2.97,2.97,0,0,0,4.249-.411,29.469,29.469,0,0,1,3.657-3.512,4.905,4.905,0,0,1,3.439-1.051q8.666,2.276,17.2,5.053c2.955.96,2.955,1.254,2.955,4.362,0,6.765-3.708,11.585-10.28,13.374a2.909,2.909,0,0,0-.611.327H93.322c-1.41-.316-2.828-.593-4.224-.96-9.451-2.479-17.285-7.717-24.355-14.231-8.019-7.4-14.54-15.885-18.07-26.362-.727-2.1-1.149-4.286-1.712-6.431Z" transform="translate(-44.96 -60.282)" fill="#fc6a10"/>
    <path id="Path_1551" data-name="Path 1551" d="M135.529,45c1.636.364,3.312.647,4.9,1.163,17.514,5.649,28.485,17.27,32.222,35.457a5.036,5.036,0,0,0,.316.822v2.545c-.978.411-1.977,1.2-2.93,1.141-1.381-.073-1.527-1.49-1.694-2.65a40.4,40.4,0,0,0-31.7-33.541c-.709-.145-1.432-.222-2.152-.324-1.156-.164-2.577-.3-2.657-1.683-.051-.952.727-1.952,1.149-2.93Z" transform="translate(-100.254 -45)" fill="#fc6a10"/>
    <path id="Path_1552" data-name="Path 1552" d="M164.549,99.2c.127,1.908-.363,3.021-1.948,3.163s-2.265-.778-2.49-2.265a27.974,27.974,0,0,0-23.9-23.894c-1.476-.233-2.4-.945-2.254-2.5s1.254-2.116,2.719-1.948c8.572.981,15.4,5.14,20.869,11.632A29.84,29.84,0,0,1,164.549,99.2Z" transform="translate(-101.593 -62.008)" fill="#fc6a10"/>
    <path id="Path_1553" data-name="Path 1553" d="M138.479,98.078c8.837.534,17.336,8.986,18.07,17.419a2.325,2.325,0,0,1-1.992,2.763,2.291,2.291,0,0,1-2.545-2.279,15.378,15.378,0,0,0-6.143-10.316,15.1,15.1,0,0,0-7.416-3.083,2.089,2.089,0,0,1-1.992-2.545A2.024,2.024,0,0,1,138.479,98.078Z" transform="translate(-103.179 -78.783)" fill="#fc6a10"/>
  </g>
</svg>
