<svg id="Layer_1" data-name="Layer 1" xmlns="http://www.w3.org/2000/svg" viewBox="0 0 288 288"><title>School</title><path d="M168.41,86.28c4.81,5.67,4.81,5.67.43,11.09a3.47,3.47,0,0,0,.25.77c1.15,1.84,3.74,4.59,3.25,5.35-1.82,2.81-4.59,5.05-7.19,7.29-.38.33-2.16-.21-2.55-.82a3.54,3.54,0,0,1-.25-3.06,24.75,24.75,0,0,1,3.4-3.87c-4.42-5.45-4.42-5.45-.28-11.06-4.39-5.54-4.39-5.54.34-10.79-1-1.1-2.35-2.09-3-3.41-.51-1-.19-2.52-.23-3.8,1.28,0,2.88-.53,3.78,0,1.78,1.16,3.13,3,4.75,4.41,2.06,1.84,2.2,3.6.06,5.44Z"/><path d="M97.75,97.28a19.72,19.72,0,0,0-2-2.15c-2.42-2-2.61-3.95-.11-6,1.21-1,2.1-2.56,3.44-3.25s3.18-.69,4.8-1a36.56,36.56,0,0,1-1.16,4.83c-.32.86-1.25,1.48-1.88,2.17,4.41,5.87,4.41,5.87-.09,11.1,1,1.09,2.3,2.08,2.9,3.4.5,1.09.15,2.57.17,3.88A30.74,30.74,0,0,1,100,110c-.47-.07-.84-.75-1.25-1.15C93.09,103.44,93.09,103.44,97.75,97.28Z"/><path d="M131.69,70.23c-1.25,2.63-2.36,5.13-3.66,7.52-.22.41-1.8.64-1.88.49-1.62-3-3.52-6-4.43-9.31-.37-1.34,1.2-3.55,2.42-4.89.79-.86,3.48-1.48,3.7-1.14A68.22,68.22,0,0,1,131.69,70.23Z"/><path d="M205,89.25c-1.25,2.62-2.34,5.12-3.68,7.48-.27.47-1.62.63-2.35.46-2.17-.51-4.51-8.4-3.25-10.21a10.18,10.18,0,0,0,1.42-3.31c.66-2.47,2.69-3.31,4.09-1.73C203.05,84,203.86,86.93,205,89.25Z"/><path d="M81.44,70.06c-1.76,1.38-2.8,2.82-3.67,2.72a4,4,0,0,1-2.58-2.54C75,69.7,76.55,68,77.4,67.92,78.41,67.84,79.51,69,81.44,70.06Z"/><path d="M64.91,100c-1.39,1.22-2.35,2.68-3.09,2.58-1.11-.15-2.06-1.41-3.07-2.2.9-1,1.66-2.36,2.74-2.69C62.18,97.43,63.36,98.84,64.91,100Z"/><path d="M222.51,70.58c-1.81,1.07-2.93,2.23-4,2.2-.76,0-2.27-1.92-2.06-2.5a4,4,0,0,1,2.75-2.35C220,67.83,221,69.28,222.51,70.58Z"/><path d="M196.14,165.46c-4.71,3.06-8.69,5.42-12.35,8.2-1,.79-1.54,2.8-1.58,4.27-.18,5.66-.37,11.35,0,17,.44,6.59-2.42,11.37-8.15,13.48-7.74,2.86-15.76,5.45-23.88,6.63a111.91,111.91,0,0,1-45.59-2.46,56.89,56.89,0,0,1-10.65-4.18c-5.31-2.68-8.28-6.84-7.88-13.23a128.29,128.29,0,0,0-.06-17,8.22,8.22,0,0,0-3-5.48c-8.07-5.59-16.41-10.79-24.63-16.18-6.39-4.19-6.46-8.48-.14-12.59C81.13,129,104.06,114.2,126.91,99.26c4.91-3.21,9.49-3.23,14.4,0,23,15,46.07,29.93,69.08,45,5.74,3.75,6,8.75-.16,11.89-6.74,3.46-9.16,8.1-8.21,15.47a73.41,73.41,0,0,1,0,15c-.83,10.53.9,20.21,6.63,29.38,3.85,6.17,1.09,10.09-6.3,10.23a70.78,70.78,0,0,1-9-.16c-4.41-.47-6.34-3.63-5-7.83a4.53,4.53,0,0,1,.64-1.35c7.69-10.47,7.72-22.5,7.17-34.7C195.94,176.94,196.14,171.77,196.14,165.46Zm-20,12.94v-14c0-8.84-.95-10.2-9.39-13.37-1.4-.52-2.83-1-4.27-1.36a109,109,0,0,0-44.53-2.3c-7,1-13.81,3.37-20.56,5.59-3.74,1.23-5.48,4.11-5.36,8.51.32,11.14.28,22.3,0,33.44-.1,4.11,1.44,6.71,4.94,8.3a62.35,62.35,0,0,0,8.81,3.4c14.48,4,29.27,4.49,44,2.41,7.15-1,14.14-3.43,21.05-5.68,3.75-1.21,5.66-4.09,5.36-8.5C175.85,189.4,176.14,183.89,176.14,178.4ZM85.89,167.21c.9-15.92,3.48-20.08,18.25-23.13,11.63-2.4,23.7-3.12,35.6-3.53a74.21,74.21,0,0,1,31.67,5.92c7.29,3.08,11.9,7.81,10.76,16.43a21.65,21.65,0,0,0,.38,4.21l25.91-16.83c-1.59-1.12-2.77-2-4-2.79-21.63-14.06-43.33-28-64.83-42.26-4.16-2.76-7.18-2.52-11.22.15-21.38,14.13-42.93,28-64.42,42-1.3.85-2.53,1.81-4.16,3Zm118.26,52.68-5.1-9.9-4.83,9.9Z"/><path d="M134.27,179.94c11.19,2,22.13,3.89,33,6.07,1.38.27,2.44,2.12,3.65,3.24-1.59.17-3.31.83-4.74.42a114.4,114.4,0,0,0-64,0c-1.45.41-3.19-.19-4.79-.31,1.16-1.14,2.16-3,3.5-3.3C111.91,183.85,123,182,134.27,179.94Z"/></svg>