<svg id="Layer_1" data-name="Layer 1" xmlns="http://www.w3.org/2000/svg" viewBox="0 0 288 288"><title>see</title><path d="M145.93,103.66c23.57,1,45.12,13.45,59.53,38.06,2.43,4.16,2.66,7.92.18,12.15-14.49,24.69-35.86,38.24-64.58,38.26S90.94,178.66,76.41,154c-2.48-4.19-2.31-7.91,0-12.16C89.24,118.36,114.17,103.56,145.93,103.66Zm-33.21,24.92-1.33-1.33Q103.22,135.42,95,143.6c-2.82,2.82-2.57,5.35-.18,8.66,22,30.35,67.43,31.43,90.63,2,5-6.29,5-6.29,0-12.58a54.2,54.2,0,0,0-15.37-13.42c.67,22.91-11.38,37.26-29.68,36.48C125,164.09,109,150.77,112.72,128.58ZM141.37,148a12.48,12.48,0,1,0-.32-25,12.48,12.48,0,0,0,.32,25Z"/></svg>