<svg xmlns="http://www.w3.org/2000/svg" width="84.13" height="70.265" viewBox="0 0 84.13 70.265">
  <g id="SMS-01" transform="translate(0 0)">
    <path id="Path_1554" data-name="Path 1554" d="M64.153,121.682a45.987,45.987,0,0,1-4.767-.756,12.728,12.728,0,0,1-9.4-12.016c-.088-10.238-.106-20.48,0-30.718.075-7.173,5.723-12.476,13.267-12.524,11.122-.075,22.249,0,33.371,0h23.439c8.73.031,13.966,5.307,13.979,14.081V107.61c0,8.54-5.391,13.869-13.984,13.886-9.207,0-18.419.027-27.627-.027a4.148,4.148,0,0,0-3.449,1.442c-3.007,3.334-6.116,6.585-9.221,9.831-2.9,3.038-6.554,3.918-10.039,2.49s-5.51-4.537-5.55-8.739C64.144,124.857,64.153,123.252,64.153,121.682Zm28.029-48.2H63.657c-3.587,0-5.749,1.826-5.749,4.988q-.084,15.147,0,30.293c0,2.861,2.052,4.736,4.966,4.838,1.543.058,3.1,0,4.639.027,2.963.071,4.453,1.557,4.5,4.542.044,2.508-.031,5.015.035,7.518a10.87,10.87,0,0,0,.531,2.211,9.54,9.54,0,0,0,2.079-1.283c3.472-3.613,6.921-7.253,10.282-10.968a5.966,5.966,0,0,1,4.812-2.118c10.021.071,20.047.035,30.072.031,4.6,0,6.315-1.681,6.324-6.222V79.7c0-4.493-1.769-6.231-6.333-6.236q-13.811-.013-27.636,0Z" transform="translate(-49.915 -65.635)" fill="#fc6a10"/>
    <path id="Path_1555" data-name="Path 1555" d="M113.573,137.106h20.091c3.144,0,4.8,1.4,4.75,3.932s-1.769,3.914-4.865,3.914H93.584c-3.1,0-4.865-1.406-4.865-3.861-.04-2.53,1.769-3.98,4.98-3.98Q103.64,137.1,113.573,137.106Z" transform="translate(-71.558 -105.496)" fill="#fc6a10"/>
    <path id="Path_1556" data-name="Path 1556" d="M113.787,102.648h20.56a3.858,3.858,0,0,1,1.707,7.4,5.435,5.435,0,0,1-2.149.314q-20.343.027-40.686,0c-2.808,0-4.449-1.4-4.511-3.741-.062-2.419,1.623-3.949,4.515-3.98C100.082,102.631,106.933,102.648,113.787,102.648Z" transform="translate(-71.551 -86.274)" fill="#fc6a10"/>
  </g>
</svg>
