<svg id="Layer_1" data-name="Layer 1" xmlns="http://www.w3.org/2000/svg" viewBox="0 0 288 288"><title>Sport</title><path d="M202.48,116.46c.57,7.41.57,7.41-6.16,9.23a3.47,3.47,0,0,0-.25.77c-.15,2.17.34,5.91-.5,6.24-3.13,1.21-6.69,1.4-10.1,1.69-.51.05-1.63-1.43-1.59-2.16a3.53,3.53,0,0,1,1.59-2.63,25.26,25.26,0,0,1,5-1.14c-.38-7-.38-7,6.26-9.13-.3-7-.3-7,6.6-8.53-.17-1.49-.67-3.07-.42-4.52.2-1.16,1.33-2.15,2-3.22,1.05.74,2.64,1.27,3,2.26.77,2,.8,4.25,1.26,6.36.59,2.69-.32,4.2-3.13,4.44C205,116.21,203.83,116.33,202.48,116.46Z"/><path d="M138.78,83.93a19.18,19.18,0,0,0-.31-2.89c-.78-3.05.2-4.72,3.46-5,1.58-.12,3.2-.85,4.69-.62s3,1.31,4.47,2a34.79,34.79,0,0,1-3.77,3.23,8.2,8.2,0,0,1-2.79.65c.13,7.34.13,7.34-6.58,8.94.15,1.46.64,3,.35,4.46-.23,1.17-1.39,2.17-2.13,3.24a30.93,30.93,0,0,1-3-2.42c-.34-.33-.24-1.1-.34-1.66C131.4,86.19,131.4,86.19,138.78,83.93Z"/><path d="M182.14,81.92c-2.55,1.39-4.91,2.77-7.37,3.94-.42.2-1.83-.53-1.81-.7.47-3.41.68-7,1.87-10.14.49-1.3,3-2.17,4.82-2.54,1.15-.24,3.69.84,3.67,1.25A65.85,65.85,0,0,1,182.14,81.92Z"/><path d="M230.37,140.32c-2.55,1.38-4.9,2.77-7.37,3.89-.49.23-1.68-.43-2.17-1-1.46-1.68,1.27-9.45,3.35-10.17a10.54,10.54,0,0,0,3.1-1.85c2-1.61,4.12-1.11,4.32,1C231.88,134.91,230.81,137.77,230.37,140.32Z"/><path d="M141.54,52.31c-2.23.09-3.93.64-4.57,0a4,4,0,0,1-.6-3.56c.18-.54,2.43-1,3.15-.59S140.62,50.3,141.54,52.31Z"/><path d="M110.62,66.83c-1.84.18-3.48.8-4,.28-.8-.77-.83-2.35-1.19-3.58,1.28-.24,2.73-.94,3.8-.57C109.89,63.19,110,65,110.62,66.83Z"/><path d="M255.5,135.46c-2.09-.2-3.68.09-4.54-.57-.61-.47-.71-2.89-.21-3.24a4.06,4.06,0,0,1,3.6-.29C255.05,131.75,255,133.5,255.5,135.46Z"/><path d="M71,93.17A48.54,48.54,0,0,1,75.23,97c7.2,8.19,14.33,16.44,21.49,24.67,1,1.1,1.93,2.18,2.7,3,7.08-4.65,13.76-9.34,20.72-13.56,15.91-9.67,33.63-14,51.79-16.73,5.67-.85,8.89,2.52,8.14,8.26-3.88,29.68-15.54,55.78-35.82,77.92-.76.84-1.52,1.69-2.26,2.55a5.73,5.73,0,0,0-.47,1l15.23,16.74c.91-.47,1.69-.91,2.5-1.26a9,9,0,0,1,10.95,2.92c2.53,3.46,2.59,8.29-.5,11.27a164.63,164.63,0,0,1-13.62,11.83c-3.41,2.65-8.55,1.73-11.48-1.43a9,9,0,0,1-.79-11.29c.51-.75,1.14-1.41,2-2.5L131,194.13c-4.24,3.27-8.29,6.5-12.46,9.58-18.1,13.35-38.45,21.16-60.62,24.44-2.13.32-4.23.87-6.35,1.22-4.47.76-7.08-1.68-6.47-6.19,3.73-27.41,12.78-52.62,30.82-74.1.65-.77,1.25-1.6,2.08-2.66q-9.36-10.8-18.7-21.58c-2.6-3-5.24-6-7.81-9-3.18-3.78-3-6.63.82-9.95,4.84-4.27,9.72-8.47,14.59-12.7Zm31.77,35.44,7.47,8.63c2.6-.72,5.07-1.54,7.59-2.08,14.75-3.15,25.27,6.87,22.09,21.6-1.31,6.07-4.31,11.77-6.76,18.22l5.1,5.56c2.12-2.4,4-4.51,5.86-6.66,17.82-20.64,27.8-44.71,31.37-71.6.33-2.45-.31-3.9-3-3.37-13.26,2.52-26.58,4.76-39,10.52A143.79,143.79,0,0,0,102.77,128.61Zm24.91,61.95-4.59-5.15c-6.58,2.74-12.39,6.06-18.65,7.59-14.63,3.58-24.92-6.05-22.5-20.85.84-5.14,3.17-10.05,5-15.55l-5.77-6.44c-16.49,17.53-31,52.25-31.29,74.44C79.28,221.57,105.29,210.76,127.68,190.56ZM153.14,204c-.69-.85-1.22-1.57-1.82-2.22-11.45-12.62-22.87-25.26-34.4-37.8a31.44,31.44,0,0,1-8.39-18.2,12.69,12.69,0,0,0-2.66-6.43c-11.4-13.41-23-26.63-34.49-40-1.61-1.87-2.76-1.75-4.46-.21-3.61,3.28-7.27,6.53-11.08,9.57-2.14,1.71-2.08,2.9-.31,4.92C66.85,126.52,78,139.58,89.37,152.39a15.55,15.55,0,0,0,7,4.35,32.07,32.07,0,0,1,15.4,9.5q16.9,18.72,33.93,37.31c1.12,1.23,2.27,2.45,3.56,3.84Zm-34-22.88c-8.5-8.57-14.47-19.76-28.22-20.66-2.8,4.64-4.82,9.64-4.93,15.23-.16,9,5.88,14.46,14.85,13.43C107.58,188.34,113.43,185.52,119.17,181.12Zm10.08-10.49c4.33-6.44,7.17-12.85,6.56-20.37-.41-5.12-3.26-8.9-8-10.29a21.54,21.54,0,0,0-14.63,1.26C111.91,154.82,121.45,162,129.25,170.63ZM168,207.76c-1.17-1.44-2-3.32-3.24-3.73a6.27,6.27,0,0,0-5,.74c-3.87,2.93-7.43,6.29-11.09,9.51-2.17,1.9-2.8,4.13-1,6.58,1.65,2.19,4.44,2.32,6.9.26,3.66-3.05,7.26-6.15,10.76-9.38C166.4,210.82,167,209.4,168,207.76Z"/><path d="M146.23,127l4.25.34v4l-4.22.5-.33,4h-4.1l-.56-3.95-4-.6v-3.9l4-.55.53-4.16h4.14C146,124.09,146.11,125.4,146.23,127Z"/><path d="M155.52,109h4l.32,4.24,4.28.42v3.94l-4.25.63c-.11,1.32-.21,2.53-.33,4h-4.12c.13-2.92-.69-5.22-4.58-4.38v-4.12l4-.5Z"/><path d="M79.89,188.8l.28,4,4.2.51v4.07l-4.06.38L79.8,202h-4l-.43-4.18-4.2-.38v-4.11l4.11-.39.52-4.15Z"/><path d="M61.65,206.64l.44-4.15h4.09l.38,4,4.24.52v4.05l-4.15.32-.52,4.31h-4l-.46-4.17-4.15-.52v-4Z"/></svg>