<svg id="Layer_1" data-name="Layer 1" xmlns="http://www.w3.org/2000/svg" viewBox="0 0 288 288"><title>Weddings</title><path d="M205.4,65c5.25,6.12,5.25,6.12.53,12a3.75,3.75,0,0,0,.27.84c1.27,2,4.09,5,3.56,5.78-2,3.07-4.95,5.51-7.75,7.95-.41.36-2.34-.21-2.77-.87a3.77,3.77,0,0,1-.29-3.32,26.89,26.89,0,0,1,3.65-4.22c-4.81-5.88-4.81-5.88-.36-12-4.79-6-4.79-6,.31-11.7-1.11-1.19-2.56-2.25-3.27-3.67-.56-1.15-.22-2.74-.28-4.13,1.39,0,3.13-.58,4.1,0,2,1.25,3.42,3.2,5.18,4.76,2.24,2,2.41,3.88.1,5.88C207.43,63.17,206.51,64,205.4,65Z"/><path d="M109.35,78.88a21.06,21.06,0,0,0-2.13-2.32c-2.63-2.17-2.84-4.27-.14-6.57,1.3-1.11,2.25-2.78,3.7-3.53s3.45-.78,5.2-1.11a39.92,39.92,0,0,1-1.23,5.24c-.34.93-1.35,1.61-2,2.36,4.81,6.33,4.81,6.33,0,12,1.06,1.17,2.5,2.24,3.17,3.67.54,1.18.17,2.78.2,4.2a36.34,36.34,0,0,1-4.18-.19c-.5-.08-.91-.81-1.36-1.24C104.33,85.59,104.33,85.59,109.35,78.88Z"/><path d="M151.59,46.34c-1.34,2.86-2.53,5.57-3.93,8.17-.24.45-1.94.71-2,.55-1.77-3.29-3.86-6.53-4.85-10.07-.42-1.45,1.27-3.86,2.58-5.31.86-1,3.77-1.63,4-1.26A74.45,74.45,0,0,1,151.59,46.34Z"/><path d="M231.18,66.55c-1.34,2.84-2.5,5.56-4,8.12-.29.51-1.75.7-2.54.52-2.35-.55-4.94-9.09-3.58-11a11.17,11.17,0,0,0,1.52-3.6c.7-2.68,2.89-3.61,4.42-1.9C229,60.85,229.94,64,231.18,66.55Z"/><path d="M97.1,46.44c-1.89,1.51-3,3.07-4,3s-2.44-1.58-2.81-2.73c-.19-.59,1.46-2.46,2.38-2.53C93.81,44.06,95,45.27,97.1,46.44Z"/><path d="M79.35,78.94c-1.5,1.34-2.53,2.93-3.34,2.82-1.19-.15-2.23-1.51-3.33-2.36,1-1,1.78-2.58,3-2.94C76.38,76.23,77.67,77.75,79.35,78.94Z"/><path d="M250.06,46.2c-2,1.17-3.16,2.43-4.34,2.41-.84,0-2.47-2.07-2.26-2.7a4.39,4.39,0,0,1,3-2.56C247.29,43.24,248.37,44.8,250.06,46.2Z"/><path d="M150.25,73.45c1.59-1.4,2.82-2.61,4.17-3.66,5-3.87,10.4-4.89,16.23-2.37,5.64,2.43,8.77,6.7,9.39,13a5.53,5.53,0,0,0,2.54,3.73c28.85,15.05,43.25,38.88,43.5,71.3.14,17.18,0,34.36,0,51.55V212c5.5-.31,5.57,3.15,5.53,7.09-.1,10.3.62,9.61-9.68,9.58-6.21,0-12.42-.06-18.63,0-3.12,0-4.53-1.32-4.4-4.43a56.37,56.37,0,0,0,0-6.5c-.27-3.66.75-6.06,5-5.49a6,6,0,0,0,.49-1.46c-.08-20.07.82-40.21-.56-60.19-1.51-21.87-13-38-33.08-47.76-3.36-1.63-5.68-1.55-8.23,1.37s-5.82,5.6-8.66,8.48c-2.39,2.42-4.61,2.53-7,.07-3.06-3.07-6.42-5.86-9.28-9.09-2.14-2.41-4.12-2.46-6.8-1.21-20.21,9.37-32.16,25.41-33.81,47.23-1.55,20.52-.33,41.25-.33,62.23,5.17-.17,5.17,3.45,5.09,7.5-.16,9.23,0,9.23-9.16,9.23-6.35,0-12.71-.06-19.06,0-3.07,0-4.61-1.17-4.49-4.35a58.54,58.54,0,0,0,0-6.49c-.26-3.62.65-6.09,5.51-5.52V207c.07-19.35-.63-38.74.39-58,1.55-29.37,16.36-50.69,42.29-64.44,1.47-.78,3.17-2.6,3.33-4.1.71-6.42,3.92-10.79,9.75-13.16S141.5,66,146.37,70C147.59,71,148.73,72.1,150.25,73.45Zm-21,22.63-8.74-7C99.26,97,80.63,123.32,80.11,148.8c-.42,20.35-.15,40.71-.17,61.07,0,.69.12,1.38.19,2.15H90.61c0-18.23-.08-36.13,0-54,.11-18.89,6.18-35.54,20.13-48.54C116.27,104.33,123,100.53,129.25,96.08Zm41.13.27a12,12,0,0,0,1.3,1c26.27,12.36,38,33.72,38.22,62.06.13,16,0,32.06,0,48.08v4.56h10.49c.07-1,.18-1.66.18-2.36q0-29.24,0-58.48A65.68,65.68,0,0,0,214.41,124c-7.48-16.4-19.47-28.26-34.52-35.06Zm-20.12,12.23c7.25-7,14.16-13.52,21-20.19,4.25-4.17,4.53-9.57.94-13.49A10.41,10.41,0,0,0,158,73.83,32.62,32.62,0,0,0,153.62,78c-2.41,2.72-4.52,2.42-6.86-.11a30.38,30.38,0,0,0-5.15-4.6A10.31,10.31,0,0,0,128.25,75a9,9,0,0,0,.29,12.55C135.55,94.61,142.81,101.4,150.26,108.58ZM74.75,222.92h21v-5h-21Zm150.88.06c1-3.73.48-5.67-3.64-5.34-3.29.28-6.62.06-9.93.06h-7.7l.43,5.28Z"/><path d="M139.25,212.1c.07-1.38.17-2.37.17-3.37,0-4,0-8.07,0-12.42-4.26.12-7.86-1.74-12.39-.74-4,.89-8.65-.25-13.12.2-3.73.37-6.79-3.36-6.93-7.45-.18-5.19-.13-10.39,0-15.58.06-3.08.47-3.3,5.31-4.07,0-3.49.16-7.07,0-10.63-.22-3.86,1.19-5.73,5.22-5.37,1.83.16,3.69,0,5.48,0,.84-7.91,3.89-11.56,9.3-10.48a21.24,21.24,0,0,0,8.91,0c5.43-1.11,8.71,2.72,9.36,10.24h5.18c0-2.4.12-4.75,0-7.08-.36-5.64,4.66-9.74,10.27-8.58a15.37,15.37,0,0,0,6.37,0c5.88-1.33,10.51,2.6,10.36,8.76-.19,7.6-.05,15.21-.05,23.25,5.15-.52,5.93,2.25,5.71,6.15-.24,4.17.08,8.38-.11,12.55-.3,6.69-5.44,9.91-11.78,7.68a8.28,8.28,0,0,0-3.51-.06c-1.4.16-3.11,1.2-4.12.7-4.41-2.15-8.51.19-12.95.38V212c6.51,1.07,11.47,4.22,13.08,11.15.93,4-.12,5.46-4.18,5.48q-17.1.1-34.2,0c-4.21,0-5.42-1.6-4.32-5.78C127.92,216.41,132.47,213.12,139.25,212.1Zm43.44-37.47H112.3c0,4.41-.16,8.56.11,12.69.07,1.13,1.43,2.18,2.2,3.26,1-.79,2.1-1.52,3.06-2.38s1.84-2.58,2.78-2.59,1.87,1.63,2.82,2.54,1.7,2.29,2.56,2.29,1.86-1.34,2.71-2.17,1.77-1.89,2.65-2.85l2.79,2.67c.87.84,1.69,2.28,2.62,2.35s1.85-1.29,2.7-2.11,1.8-1.94,2.68-2.91c1,1,2,2,3,3,.77.75,1.68,2.12,2.36,2,1-.15,2-1.26,2.82-2.09s1.72-2,2.57-2.95c1,1,2,2,3,2.94.89.8,1.8,1.95,2.83,2.1.67.11,1.59-1.27,2.36-2,1-1,2-2,3-3,.89,1,1.74,2,2.68,2.9s1.73,2,2.73,2.14c.7.1,1.67-1.2,2.44-2,1-1,1.94-2.06,2.9-3.09a34.85,34.85,0,0,0,2.83,3.22c.87.78,2.12,1.93,3,1.76a3.6,3.6,0,0,0,2.09-2.71C182.82,183.42,182.69,179.13,182.69,174.63Zm-64.76-5.93h15.72V158.59H117.93Zm21.85-10.25v10.23h15.53V158.45Zm22.89,64.42c-1.78-3.72-3.28-5-6.89-5.1-5.46-.17-10.93-.2-16.39,0-3.21.13-6,1.35-7.06,5.09Zm3.6-54.06V153h-4.9v15.78Zm6-15.89v16.13l4.79-.24V152.92ZM150,212.21V195.9l-4.73.28v16Zm24.86-63.7c1.12-2,2.24-3.12,2.18-4.19a3.24,3.24,0,0,0-2.51-2.06c-.88.05-2.39,1.52-2.34,2.29C172.24,145.63,173.49,146.63,174.84,148.51Zm-40,1.52c-1.52-1.19-2.59-2.61-3.3-2.45-1.09.25-1.92,1.6-2.86,2.48,1,.85,1.81,2.17,2.89,2.39C132.28,152.6,133.33,151.21,134.83,150Zm32.81-5.55c-1.94-1.12-3-2.26-4.12-2.22a3.25,3.25,0,0,0-2.08,2.48c.05.89,1.5,2.42,2.25,2.37C164.78,147,165.79,145.8,167.64,144.48Zm-25.35,9.1c1.14-1.56,2.53-2.69,2.34-3.38-.3-1.08-1.67-1.87-2.58-2.78-.82,1-2.11,1.88-2.29,3C139.63,151.12,141.06,152.12,142.29,153.58Z"/></svg>